<mxfile host="app.diagrams.net" modified="2024-04-03T23:58:07.756Z" agent="Mozilla/5.0 (X11; Linux x86_64; rv:109.0) Gecko/20100101 Firefox/115.0" etag="V67upqvJP96ILZ565psS" version="24.2.2" type="google">
  <diagram name="Page-1" id="e7e014a7-5840-1c2e-5031-d8a46d1fe8dd">
    <mxGraphModel grid="1" page="1" gridSize="10" guides="1" tooltips="1" connect="1" arrows="1" fold="1" pageScale="1" pageWidth="1169" pageHeight="826" background="none" math="0" shadow="0">
      <root>
        <mxCell id="0" />
        <mxCell id="1" parent="0" />
        <mxCell id="U0sATUZntWUQ76c1eP2E-65" value="&lt;div align=&quot;center&quot;&gt;FIlme&lt;/div&gt;&lt;div align=&quot;center&quot;&gt;&lt;br&gt;&lt;/div&gt;&lt;div align=&quot;left&quot;&gt;&amp;nbsp; - descricao: string&lt;/div&gt;&lt;div align=&quot;left&quot;&gt;&amp;nbsp; - categoria: string&lt;/div&gt;&lt;div align=&quot;left&quot;&gt;&amp;nbsp; - duracao: int&lt;/div&gt;&lt;div align=&quot;left&quot;&gt;&amp;nbsp; - classificacao: string&lt;/div&gt;&lt;div align=&quot;left&quot;&gt;&amp;nbsp; - nome: string&amp;nbsp;&lt;/div&gt;&lt;div align=&quot;left&quot;&gt;&lt;br&gt;&lt;/div&gt;&lt;div align=&quot;left&quot;&gt;&lt;br&gt;&lt;/div&gt;&lt;div align=&quot;left&quot;&gt;&amp;nbsp; + construct(nome: string, categorai: string, classificacao: string, descricao: string)&lt;br&gt;&lt;/div&gt;" style="verticalAlign=top;align=left;overflow=fill;html=1;whiteSpace=wrap;" vertex="1" parent="1">
          <mxGeometry x="150" y="180" width="460" height="150" as="geometry" />
        </mxCell>
        <mxCell id="U0sATUZntWUQ76c1eP2E-66" value="" style="line;strokeWidth=1;fillColor=none;align=left;verticalAlign=middle;spacingTop=-1;spacingLeft=3;spacingRight=3;rotatable=0;labelPosition=right;points=[];portConstraint=eastwest;strokeColor=inherit;" vertex="1" parent="1">
          <mxGeometry x="150" y="190" width="460" height="8" as="geometry" />
        </mxCell>
        <mxCell id="U0sATUZntWUQ76c1eP2E-67" value="" style="line;strokeWidth=1;fillColor=none;align=left;verticalAlign=middle;spacingTop=-1;spacingLeft=3;spacingRight=3;rotatable=0;labelPosition=right;points=[];portConstraint=eastwest;strokeColor=inherit;" vertex="1" parent="1">
          <mxGeometry x="150" y="270" width="460" height="50" as="geometry" />
        </mxCell>
        <mxCell id="U0sATUZntWUQ76c1eP2E-68" value="&lt;div align=&quot;center&quot;&gt;&lt;br&gt;&lt;/div&gt;&lt;div align=&quot;center&quot;&gt;Sala&lt;/div&gt;&lt;div align=&quot;center&quot;&gt;&lt;br&gt;&lt;/div&gt;&lt;div align=&quot;left&quot;&gt;&amp;nbsp; - num: int&lt;/div&gt;&lt;div align=&quot;left&quot;&gt;&amp;nbsp; - capacidade: int&lt;/div&gt;&lt;div align=&quot;left&quot;&gt;&amp;nbsp; - filme: string&lt;/div&gt;&lt;div align=&quot;left&quot;&gt;&lt;br&gt;&lt;/div&gt;&lt;div align=&quot;left&quot;&gt;&lt;br&gt;&lt;/div&gt;&lt;div align=&quot;left&quot;&gt;&amp;nbsp; + costruct(num: int, capacidade: int, filme: string)&lt;/div&gt;&lt;div align=&quot;left&quot;&gt;&amp;nbsp; + buySeat(num: int)&lt;br&gt;&lt;/div&gt;" style="verticalAlign=top;align=left;overflow=fill;html=1;whiteSpace=wrap;" vertex="1" parent="1">
          <mxGeometry x="870" y="180" width="270" height="160" as="geometry" />
        </mxCell>
        <mxCell id="U0sATUZntWUQ76c1eP2E-69" value="" style="line;strokeWidth=1;fillColor=none;align=left;verticalAlign=middle;spacingTop=-1;spacingLeft=3;spacingRight=3;rotatable=0;labelPosition=right;points=[];portConstraint=eastwest;strokeColor=inherit;" vertex="1" parent="1">
          <mxGeometry x="870" y="210" width="270" height="10" as="geometry" />
        </mxCell>
        <mxCell id="U0sATUZntWUQ76c1eP2E-70" value="" style="line;strokeWidth=1;fillColor=none;align=left;verticalAlign=middle;spacingTop=-1;spacingLeft=3;spacingRight=3;rotatable=0;labelPosition=right;points=[];portConstraint=eastwest;strokeColor=inherit;" vertex="1" parent="1">
          <mxGeometry x="870" y="280" width="270" height="8" as="geometry" />
        </mxCell>
        <mxCell id="U0sATUZntWUQ76c1eP2E-72" value="&lt;div align=&quot;center&quot;&gt;&lt;br&gt;&lt;/div&gt;&lt;div align=&quot;center&quot;&gt;Ingressos&lt;br&gt;&lt;/div&gt;&lt;div align=&quot;center&quot;&gt;&lt;br&gt;&lt;/div&gt;&lt;div align=&quot;left&quot;&gt;&amp;nbsp; - sala:&amp;nbsp; string&lt;br&gt;&lt;/div&gt;&lt;div align=&quot;left&quot;&gt;&amp;nbsp; - filme: string&lt;/div&gt;&lt;div align=&quot;left&quot;&gt;&amp;nbsp; - horario: int&lt;br&gt;&lt;/div&gt;&lt;div align=&quot;left&quot;&gt;&lt;br&gt;&lt;/div&gt;&lt;div align=&quot;left&quot;&gt;&lt;br&gt;&lt;/div&gt;&lt;div align=&quot;left&quot;&gt;&amp;nbsp; + costruct(filme: string, sala: string, horario: int)&lt;/div&gt;&lt;div align=&quot;left&quot;&gt;&amp;nbsp; + getFIlme()&lt;br&gt;&lt;/div&gt;" style="verticalAlign=top;align=left;overflow=fill;html=1;whiteSpace=wrap;" vertex="1" parent="1">
          <mxGeometry x="245" y="450" width="275" height="160" as="geometry" />
        </mxCell>
        <mxCell id="U0sATUZntWUQ76c1eP2E-73" value="" style="line;strokeWidth=1;fillColor=none;align=left;verticalAlign=middle;spacingTop=-1;spacingLeft=3;spacingRight=3;rotatable=0;labelPosition=right;points=[];portConstraint=eastwest;strokeColor=inherit;" vertex="1" parent="1">
          <mxGeometry x="245" y="460" width="275" height="40" as="geometry" />
        </mxCell>
        <mxCell id="U0sATUZntWUQ76c1eP2E-74" value="" style="line;strokeWidth=1;fillColor=none;align=left;verticalAlign=middle;spacingTop=-1;spacingLeft=3;spacingRight=3;rotatable=0;labelPosition=right;points=[];portConstraint=eastwest;strokeColor=inherit;" vertex="1" parent="1">
          <mxGeometry x="245" y="550" width="275" height="8" as="geometry" />
        </mxCell>
        <mxCell id="U0sATUZntWUQ76c1eP2E-75" value="&lt;div align=&quot;center&quot;&gt;&lt;br&gt;&lt;/div&gt;&lt;div align=&quot;center&quot;&gt;Cliente&lt;br&gt;&lt;/div&gt;&lt;div align=&quot;center&quot;&gt;&lt;br&gt;&lt;/div&gt;&lt;div align=&quot;left&quot;&gt;&amp;nbsp; - nome:&amp;nbsp; string&lt;br&gt;&lt;/div&gt;&lt;div align=&quot;left&quot;&gt;&amp;nbsp; - ingresso: string&lt;/div&gt;&lt;div align=&quot;left&quot;&gt;&amp;nbsp; - &lt;br&gt;&lt;/div&gt;&lt;div align=&quot;left&quot;&gt;&lt;br&gt;&lt;/div&gt;&lt;div align=&quot;left&quot;&gt;&lt;br&gt;&lt;/div&gt;&lt;div align=&quot;left&quot;&gt;&amp;nbsp; + costruct(nome: string, horario: string)&lt;/div&gt;&lt;div align=&quot;left&quot;&gt;&amp;nbsp; + getData()&lt;br&gt;&lt;/div&gt;" style="verticalAlign=top;align=left;overflow=fill;html=1;whiteSpace=wrap;" vertex="1" parent="1">
          <mxGeometry x="710" y="470" width="270" height="160" as="geometry" />
        </mxCell>
        <mxCell id="U0sATUZntWUQ76c1eP2E-77" value="" style="line;strokeWidth=1;fillColor=none;align=left;verticalAlign=middle;spacingTop=-1;spacingLeft=3;spacingRight=3;rotatable=0;labelPosition=right;points=[];portConstraint=eastwest;strokeColor=inherit;" vertex="1" parent="1">
          <mxGeometry x="710" y="470" width="270" height="60" as="geometry" />
        </mxCell>
        <mxCell id="U0sATUZntWUQ76c1eP2E-78" value="" style="line;strokeWidth=1;fillColor=none;align=left;verticalAlign=middle;spacingTop=-1;spacingLeft=3;spacingRight=3;rotatable=0;labelPosition=right;points=[];portConstraint=eastwest;strokeColor=inherit;" vertex="1" parent="1">
          <mxGeometry x="710" y="570" width="270" height="8" as="geometry" />
        </mxCell>
        <mxCell id="U0sATUZntWUQ76c1eP2E-80" value="" style="endArrow=diamondThin;endFill=0;endSize=24;html=1;rounded=0;" edge="1" parent="1" source="U0sATUZntWUQ76c1eP2E-72" target="U0sATUZntWUQ76c1eP2E-65">
          <mxGeometry width="160" relative="1" as="geometry">
            <mxPoint x="382.5" y="290" as="sourcePoint" />
            <mxPoint x="382.5" y="290" as="targetPoint" />
          </mxGeometry>
        </mxCell>
        <mxCell id="U0sATUZntWUQ76c1eP2E-86" value="" style="endArrow=diamondThin;endFill=0;endSize=24;html=1;rounded=0;entryX=1;entryY=0.5;entryDx=0;entryDy=0;" edge="1" parent="1" source="U0sATUZntWUQ76c1eP2E-68" target="U0sATUZntWUQ76c1eP2E-65">
          <mxGeometry width="160" relative="1" as="geometry">
            <mxPoint x="710" y="260" as="sourcePoint" />
            <mxPoint x="710" y="260" as="targetPoint" />
          </mxGeometry>
        </mxCell>
        <mxCell id="U0sATUZntWUQ76c1eP2E-87" value="" style="endArrow=diamondThin;endFill=0;endSize=24;html=1;rounded=0;entryX=1;entryY=0.622;entryDx=0;entryDy=0;entryPerimeter=0;" edge="1" parent="1" target="U0sATUZntWUQ76c1eP2E-72">
          <mxGeometry width="160" relative="1" as="geometry">
            <mxPoint x="710" y="549.5" as="sourcePoint" />
            <mxPoint x="550" y="549.5" as="targetPoint" />
          </mxGeometry>
        </mxCell>
        <mxCell id="U0sATUZntWUQ76c1eP2E-88" value="" style="endArrow=diamondThin;endFill=0;endSize=24;html=1;rounded=0;entryX=0.004;entryY=0.831;entryDx=0;entryDy=0;entryPerimeter=0;exitX=0.811;exitY=-0.019;exitDx=0;exitDy=0;exitPerimeter=0;" edge="1" parent="1" source="U0sATUZntWUQ76c1eP2E-72" target="U0sATUZntWUQ76c1eP2E-68">
          <mxGeometry width="160" relative="1" as="geometry">
            <mxPoint x="520" y="480" as="sourcePoint" />
            <mxPoint x="680" y="480" as="targetPoint" />
          </mxGeometry>
        </mxCell>
      </root>
    </mxGraphModel>
  </diagram>
</mxfile>
